<svg width="200" height="200" viewBox="0 0 200 200" fill="none" xmlns="http://www.w3.org/2000/svg">
<path d="M150.145 146.039L149.992 64.8377C149.992 61.6777 146.527 59.9446 144.951 59.7166L34.8904 45.7269C34.6014 45.6879 34.3064 45.6609 34.0154 45.6429C31.8724 45.5019 30.0954 45.8559 28.6534 46.5569C25.9614 47.8089 24.0565 50.3128 24.0605 54.2088V158.314C23.4905 163.648 27.1714 168.757 34.8394 167.578L144.025 150.74C146.993 150.186 150.145 148.395 150.145 146.039Z" fill="url(#paint0_linear_2866_382)"/>
<path d="M24.0565 128.922C41.2555 126.461 61.1895 125.051 82.4465 125.051C107.643 125.051 130.991 127.031 150.116 130.401L150.146 146.04C150.146 148.395 146.994 150.186 144.026 150.737L34.8365 167.579C27.1725 168.755 23.4865 163.649 24.0575 158.315V128.922H24.0565Z" fill="url(#paint1_linear_2866_382)"/>
<path d="M118.736 60.5156C118.736 44.7656 131.503 32 147.254 32C163.003 32 175.772 44.7656 175.772 60.5156C175.772 76.2676 163.003 89.0361 147.254 89.0361C131.503 89.0351 118.736 76.2676 118.736 60.5156Z" fill="#FFC338"/>
<path d="M118.736 60.5156C118.736 59.1196 118.836 57.7502 119.029 56.4072L144.841 59.6875C146.421 59.9175 149.879 61.6506 149.879 64.8086L149.925 88.9111C149.046 88.9951 148.153 89.0361 147.253 89.0361C131.503 89.0351 118.736 76.2676 118.736 60.5156Z" fill="url(#paint2_linear_2866_382)"/>
<path d="M41.3444 68.8477L50.1044 69.4297V72.7109L51.8824 72.0273L53.4784 72.7109V69.6523L61.4164 70.1807L51.9884 80.9268L47.9334 75.5615L44.5034 78.1543L51.7404 87.7305L62.2354 75.7666V89.2686L41.3424 89.1006V68.8477H41.3444ZM68.1375 70.6289L136.202 75.1562V89.8672L68.1375 89.3164V70.6289ZM68.1375 97.5723L136.202 97.4004V113.031L68.1375 116.777V97.5723ZM41.3444 97.6406L50.1044 97.6201V100.786L51.8824 100.102L53.4784 100.786V97.6104L62.0034 97.5889L51.9884 109.003L47.9334 103.636L44.5034 106.226L51.7404 115.806L62.2354 103.843V117.103L41.3424 118.251V97.6406H41.3444ZM68.1375 124.941L136.202 120.849V135.949L68.1375 143.224V124.941ZM41.3444 126.553L50.1044 126.026V128.458L51.8824 127.774L53.4784 128.458V125.823L61.9564 125.312L51.9894 136.674L47.9344 131.307L44.5044 133.897L51.7414 143.475L62.2365 131.512V143.854L41.3434 146.086L41.3444 126.553Z" fill="url(#paint3_linear_2866_382)"/>
<path d="M148.682 39.5612V59.8009L164.901 72.0783C167.489 74.0353 164.551 77.9161 161.964 75.9591L144.779 62.9513C144.482 62.7263 143.813 61.3829 143.813 61.0099V39.5612C143.814 36.3162 148.682 36.3162 148.682 39.5612Z" fill="white"/>
<defs>
<linearGradient id="paint0_linear_2866_382" x1="18.7276" y1="124.862" x2="149.137" y2="74.4781" gradientUnits="userSpaceOnUse">
<stop stop-color="#2F1BE7"/>
<stop offset="0.451" stop-color="#4835EA"/>
<stop offset="1" stop-color="#C468F8"/>
</linearGradient>
<linearGradient id="paint1_linear_2866_382" x1="23.3035" y1="125.776" x2="147.272" y2="168.763" gradientUnits="userSpaceOnUse">
<stop stop-color="#4C17A5"/>
<stop offset="1" stop-color="#2A9CE2"/>
</linearGradient>
<linearGradient id="paint2_linear_2866_382" x1="108.869" y1="63.176" x2="154.449" y2="77.7268" gradientUnits="userSpaceOnUse">
<stop stop-color="#4634EA"/>
<stop offset="1" stop-color="#FFC338"/>
</linearGradient>
<linearGradient id="paint3_linear_2866_382" x1="41.3447" y1="107.467" x2="136.203" y2="107.467" gradientUnits="userSpaceOnUse">
<stop stop-color="#00FFFF"/>
<stop offset="0.3491" stop-color="#00FCFE"/>
<stop offset="0.5792" stop-color="#01F3FC"/>
<stop offset="0.7749" stop-color="#01E4F8"/>
<stop offset="0.9504" stop-color="#03CFF3"/>
<stop offset="1" stop-color="#03C8F1"/>
</linearGradient>
</defs>
</svg>
